<?xml version="1.0" standalone="no"?><!DOCTYPE svg PUBLIC "-//W3C//DTD SVG 1.1//EN" "http://www.w3.org/Graphics/SVG/1.1/DTD/svg11.dtd"><svg t="1578389503041" class="icon" viewBox="0 0 1024 1024" version="1.1" xmlns="http://www.w3.org/2000/svg" p-id="2234" xmlns:xlink="http://www.w3.org/1999/xlink" width="200" height="200"><defs><style type="text/css"></style></defs><path d="M510.820484 62.633113c-246.524965 0-447.089766 200.555586-447.089766 447.091814 0 246.535204 200.564801 447.09079 447.089766 447.09079 246.527013 0 447.091814-200.555586 447.091814-447.09079S757.347497 62.633113 510.820484 62.633113z m0 34.392308c227.560561 0 412.699506 185.139968 412.699506 412.699506 0 103.628458-38.479658 198.373686-101.780345 270.934391-43.677924-32.946582-107.851985-58.186379-183.428032-71.569584-3.550834-0.637881-6.020446-3.493497-5.876078-6.819076 0.578495-13.416993 0.586686-27.639784 0.521158-42.383733 0-11.486969 8.035452-27.06948 16.540867-43.578608 10.956597-21.242549 23.315917-45.222967 25.507031-72.326235 13.719039-29.321004 21.242549-57.952933 21.242549-80.976019 0-13.770234-2.752204-24.903963-8.379477-33.753403 1.284976-7.220439 2.527973-14.608796 3.777113-22.114899 1.386341-8.262755 2.789064-16.674996 4.333082-25.223415 15.491385-86.046299-16.859296-147.960644-91.083814-174.342074l-1.629002-0.571328c-59.505143-21.327531-103.863951-25.792695-130.598621-25.792695-49.873454 0-88.195434 14.626202-113.887788 43.493624-30.185163 33.904939-41.369063 86.448686-33.250676 156.156847 1.813301 15.616299 4.685299 30.344889 7.447742 44.56768l0.755627 3.912266c-5.583247 8.833059-8.321116 19.950406-8.321116 33.669445 0 23.023085 7.5317 51.655015 21.243573 80.976019 2.166541 26.71624 14.290367 49.941031 25.046283 70.529316 8.740909 16.742573 17.00264 32.560577 17.002639 45.28952-0.067576 14.827907-0.059385 29.051722 0.520134 42.468716 0.14232 3.32558-2.326267 6.181196-5.868911 6.819076-75.593454 13.383205-139.76649 38.624026-183.444414 71.569584C136.602684 708.114995 98.122002 613.353384 98.122002 509.724927 98.122002 282.165389 283.261971 97.025421 510.820484 97.025421z" fill="#A0A0A0" p-id="2235"></path></svg>