<?xml version="1.0" standalone="no"?><!DOCTYPE svg PUBLIC "-//W3C//DTD SVG 1.1//EN" "http://www.w3.org/Graphics/SVG/1.1/DTD/svg11.dtd"><svg t="1579248031528" class="icon" viewBox="0 0 1024 1024" version="1.1" xmlns="http://www.w3.org/2000/svg" p-id="2122" xmlns:xlink="http://www.w3.org/1999/xlink" width="200" height="200"><defs><style type="text/css"></style></defs><path d="M931.552 208.528 102.56 208.528 95.36 208.528l-17.44 0L65.92 208.528 65.92 761.28l902.336 0L968.256 208.528l-31.216 0L931.552 208.528zM895.44 243.072 546.864 576.72c-15.92 15.216-43.664 15.216-59.552 0L138.656 243.072 895.44 243.072zM102 256.848 336.368 481.12 102 705.44 102 256.848zM130.8 726.736l231.104-221.184 99.872 95.584c14.752 14.144 34.4 21.952 55.296 21.952 20.88 0 40.528-7.808 55.28-21.952l99.872-95.6 231.072 221.184L130.8 726.72zM932.144 705.456 697.792 481.12l234.336-224.336L932.128 705.456z" p-id="2123"></path></svg>