<?xml version="1.0" standalone="no"?><!DOCTYPE svg PUBLIC "-//W3C//DTD SVG 1.1//EN" "http://www.w3.org/Graphics/SVG/1.1/DTD/svg11.dtd"><svg t="1578389585887" class="icon" viewBox="0 0 1024 1024" version="1.1" xmlns="http://www.w3.org/2000/svg" p-id="3127" xmlns:xlink="http://www.w3.org/1999/xlink" width="200" height="200"><defs><style type="text/css"></style></defs><path d="M809.5 439.3H332.8V291c0-97.3 80.2-176.3 179.2-176.3 99 0 179.2 78.9 179.2 176.3v46.9h48.2v-46.5C739.4 165.8 637.6 64 512 64c-125.6 0-227.4 101.8-227.4 227.4v147.9h-70.2c-29.9 0-54.1 24.2-54.1 54.1v412.5c0 29.9 24.2 54.1 54.1 54.1h595c29.9 0 54.1-24.2 54.1-54.1V493.4c0.1-29.9-24.1-54.1-54-54.1z m1.7 429.3c0 24.3-20.6 44-46 44H258.8c-25.4 0-46-19.7-46-44V532.4c0-24.3 20.6-44.1 46-44.1h25.8v0.1l48.2 0.5v-0.6h432.4c25.4 0 46 19.7 46 44v336.3z m0 0" p-id="3128" fill="#8a8a8a"></path></svg>