<?xml version="1.0" standalone="no"?><!DOCTYPE svg PUBLIC "-//W3C//DTD SVG 1.1//EN" "http://www.w3.org/Graphics/SVG/1.1/DTD/svg11.dtd"><svg t="1579411341970" class="icon" viewBox="0 0 1024 1024" version="1.1" xmlns="http://www.w3.org/2000/svg" p-id="2022" xmlns:xlink="http://www.w3.org/1999/xlink" width="200" height="200"><defs><style type="text/css"></style></defs><path d="M 836.033 788.8 l 6 6 l 117.8 117.8 h -235.6 l -206.5 0.2 h -5.8 c -247.4 0 -448 -179.5 -448 -400.8 s 200.6 -400.8 448 -400.8 s 448 179.5 448 400.8 c 0.1 107.4 -47.1 204.9 -123.9 276.8 Z m -182.6 -206.1 c 39.1 0 70.7 -31.7 70.7 -70.7 s -31.7 -70.7 -70.7 -70.7 c -39.1 0 -70.7 31.7 -70.7 70.7 s 31.7 70.7 70.7 70.7 Z m -282.9 0 c 39.1 0 70.7 -31.7 70.7 -70.7 s -31.7 -70.7 -70.7 -70.7 s -70.7 31.7 -70.7 70.7 s 31.6 70.7 70.7 70.7 Z" fill="#bfbfbf" p-id="2023"></path></svg>