<?xml version="1.0" standalone="no"?><!DOCTYPE svg PUBLIC "-//W3C//DTD SVG 1.1//EN" "http://www.w3.org/Graphics/SVG/1.1/DTD/svg11.dtd"><svg t="1578906444638" class="icon" viewBox="0 0 1024 1024" version="1.1" xmlns="http://www.w3.org/2000/svg" p-id="2181" xmlns:xlink="http://www.w3.org/1999/xlink" width="200" height="200"><defs><style type="text/css"></style></defs><path d="M733.867 0H307.2c-47.121 0-85.333 38.195-85.333 85.333v853.334c0 47.138 38.212 85.333 85.333 85.333h426.667c47.138 0 85.333-38.195 85.333-85.333V85.333C819.2 38.195 781.005 0 733.867 0z m-281.6 51.2H588.8c4.71 0 8.533 3.823 8.533 8.533s-3.823 8.534-8.533 8.534H452.267c-4.71 0-8.534-3.823-8.534-8.534s3.823-8.533 8.534-8.533zM512 989.867c-28.28 0-51.2-22.92-51.2-51.2s22.92-51.2 51.2-51.2 51.2 22.92 51.2 51.2-22.92 51.2-51.2 51.2z m256-136.534H273.067V102.4H768v750.933z" p-id="2182"></path></svg>