<?xml version="1.0" standalone="no"?><!DOCTYPE svg PUBLIC "-//W3C//DTD SVG 1.1//EN" "http://www.w3.org/Graphics/SVG/1.1/DTD/svg11.dtd"><svg t="1578379860609" class="icon" viewBox="0 0 1024 1024" version="1.1" xmlns="http://www.w3.org/2000/svg" p-id="1680" xmlns:xlink="http://www.w3.org/1999/xlink" width="200" height="200"><defs><style type="text/css"></style></defs><path d="M815.616 695.296l-33.28 35.328v0.512l-0.512 0.512c-12.288 12.288-21.504 22.016-29.696 30.72-9.216 9.216-16.384 17.408-22.528 23.552L716.8 798.72c-3.072 3.072-7.168 6.144-10.752 9.216-6.144 4.608-12.288 8.704-18.944 11.776-5.12 2.56-11.776 5.12-20.48 8.704-8.192 3.072-16.384 6.144-25.088 9.216-9.216 3.072-17.92 5.632-25.6 7.68-9.216 2.56-15.872 4.096-20.48 4.608h-2.048c-3.072 0.512-6.144 0.512-9.216 0.512-23.552 0-36.864-12.288-42.496-19.456-10.24-12.8-13.824-29.184-10.752-48.64 1.024-6.144 2.56-13.312 5.12-23.552 2.048-7.68 4.608-15.872 6.656-24.064 2.56-8.704 5.12-16.896 7.168-24.064 2.56-8.704 5.12-14.336 7.168-19.456 2.56-5.632 5.12-11.264 8.192-15.872 3.584-5.632 8.192-11.776 14.336-17.92l1.536-1.536 10.24-10.752c6.144-6.656 14.336-14.848 23.552-24.576l30.72-31.744 33.792-35.328 90.112-93.184 2.048-2.048-1.024-1.024 25.6-24.576 2.56-2.56 3.072-3.072c3.072-3.072 7.168-6.656 11.776-11.264 5.12-5.12 9.728-9.216 13.312-12.288l0.512-0.512 0.512-0.512c4.096-3.584 8.704-6.144 13.312-8.704V179.2c0-44.032-35.84-79.36-79.36-79.36H164.352c-44.032 0-79.36 35.84-79.36 79.36v664.064c0 44.032 35.84 79.36 79.36 79.36h596.992c44.032 0 79.36-35.84 79.36-79.36v-174.592l-25.088 26.624zM270.848 305.664H655.36c18.432 0 33.28 14.848 33.28 33.28s-14.848 33.28-33.28 33.28H270.848c-18.432 0-33.28-14.848-33.28-33.28s14.848-33.28 33.28-33.28z m145.92 411.648H270.848c-18.432 0-33.28-14.848-33.28-33.28s14.848-33.28 33.28-33.28h145.92c18.432 0 33.28 14.848 33.28 33.28s-15.36 33.28-33.28 33.28z m-145.92-172.544c-18.432 0-33.28-14.848-33.28-33.28s14.848-33.28 33.28-33.28h251.904c18.432 0 33.28 14.848 33.28 33.28s-14.848 33.28-33.28 33.28H270.848z" p-id="1681" fill="#707070"></path><path d="M786.432 665.088l-33.28 35.328c-11.264 11.264-20.992 21.504-30.208 31.232-8.704 9.216-16.384 16.896-22.016 23.04-6.144 6.144-9.216 9.728-10.752 10.24-2.56 2.56-6.144 5.632-9.728 8.192-3.584 3.072-7.168 5.12-11.264 7.168-4.096 2.048-9.728 4.608-17.408 7.168-7.68 3.072-15.36 5.632-23.552 8.192-8.192 2.56-15.872 5.12-23.552 7.168-7.168 2.048-12.8 3.072-16.384 4.096-1.536 0-3.072 0.512-4.608 0.512-5.12 0-8.704-1.024-10.752-3.584-2.56-3.072-3.072-8.704-2.048-15.872 0.512-4.096 2.048-9.728 4.096-17.408s4.096-15.36 6.656-23.552c2.56-8.192 4.608-15.872 6.656-23.04 2.048-6.656 4.096-11.776 5.632-14.336 1.536-4.096 3.584-7.68 5.632-10.752s5.12-7.168 9.216-10.752c1.536-2.048 5.632-6.144 11.776-12.288 6.144-6.656 13.824-14.336 23.04-24.064l30.72-31.744 33.792-35.328L798.72 490.496l78.336 81.408-90.624 93.184zM936.96 506.88c-1.536 3.584-3.584 7.168-6.656 10.752-3.072 3.584-6.144 6.656-9.216 9.216l-6.656 6.656-6.144 6.144-78.336-80.896c3.584-3.072 7.168-7.168 11.776-11.264 4.608-4.608 8.704-8.192 11.264-10.752 4.096-3.072 8.192-5.632 12.288-6.656 3.584-1.024 7.68-2.048 11.264-2.048h1.024c4.096 0 8.192 1.024 11.776 2.048 3.584 1.024 7.168 2.56 9.728 4.096 6.144 3.072 12.288 8.704 19.456 16.384 7.168 7.68 12.8 16.384 16.384 25.088 1.024 2.56 2.048 5.632 2.56 9.216 0.512 3.584 1.024 7.168 1.024 10.752 0.512 3.584 0 7.168-1.536 11.264z" p-id="1682" fill="#707070"></path></svg>